<?xml version="1.0" encoding="UTF-8"?>
<svg xmlns="http://www.w3.org/2000/svg" xmlns:xlink="http://www.w3.org/1999/xlink" width="20px" height="20px" viewBox="0 0 20 20" version="1.1">
<g id="surface1">
<path style=" stroke:none;fill-rule:nonzero;fill:rgb(20.392157%,66.666667%,87.45098%);fill-opacity:1;" d="M 10 20 C 15.523438 20 20 15.523438 20 10 C 20 4.476562 15.523438 0 10 0 C 4.476562 0 0 4.476562 0 10 C 0 15.523438 4.476562 20 10 20 Z M 10 20 "/>
<path style=" stroke:none;fill-rule:nonzero;fill:rgb(100%,100%,100%);fill-opacity:1;" d="M 4.160156 9.914062 C 4.160156 9.914062 9.160156 7.859375 10.894531 7.140625 C 11.5625 6.851562 13.816406 5.925781 13.816406 5.925781 C 13.816406 5.925781 14.855469 5.519531 14.769531 6.503906 C 14.738281 6.90625 14.507812 8.324219 14.277344 9.855469 C 13.929688 12.023438 13.554688 14.394531 13.554688 14.394531 C 13.554688 14.394531 13.496094 15.058594 13.003906 15.171875 C 12.515625 15.289062 11.707031 14.769531 11.5625 14.652344 C 11.445312 14.566406 9.394531 13.265625 8.640625 12.628906 C 8.4375 12.457031 8.207031 12.109375 8.671875 11.707031 C 9.710938 10.75 10.953125 9.566406 11.707031 8.816406 C 12.050781 8.46875 12.398438 7.660156 10.953125 8.640625 C 8.902344 10.058594 6.878906 11.386719 6.878906 11.386719 C 6.878906 11.386719 6.417969 11.675781 5.550781 11.417969 C 4.683594 11.15625 3.671875 10.808594 3.671875 10.808594 C 3.671875 10.808594 2.976562 10.375 4.160156 9.914062 Z M 4.160156 9.914062 "/>
</g>
</svg>
